<svg width="100%" height="380" viewBox="0 0 1600 380" xmlns="http://www.w3.org/2000/svg" preserveAspectRatio="none">
  <defs>
    <linearGradient id="geoGradient" x1="0%" y1="0%" x2="100%" y2="100%">
      <stop offset="0%" stop-color="#333333" stop-opacity="0.4" />
      <stop offset="100%" stop-color="#000000" stop-opacity="0.1" />
    </linearGradient>
    
    <pattern id="gridPattern" width="20" height="20" patternUnits="userSpaceOnUse">
      <path d="M 20 0 L 0 0 0 20" fill="none" stroke="#FFFFFF" stroke-opacity="0.05" stroke-width="1"/>
    </pattern>
  </defs>

  <path 
    d="M1050 40 Q1050 10 1080 10 L1350 10 Q1400 10 1400 60 L1400 140 Q1400 170 1370 170 L1230 170 Q1200 170 1200 200 L1200 280 Q1200 310 1230 310 L1520 310 Q1550 310 1550 340 L1550 360 Q1550 370 1540 370 L1080 370 Q1050 370 1050 340 L1050 260 Q1050 230 1020 230 L900 230 Q870 230 870 200 L870 140 Q870 110 900 110 L1020 110 Q1050 110 1050 80 Z"
    fill="url(#geoGradient)"
    stroke="#555555" 
    stroke-width="1"
    stroke-opacity="0.5"
  />
  
  <path 
    d="M1050 40 Q1050 10 1080 10 L1350 10 Q1400 10 1400 60 L1400 140 Q1400 170 1370 170 L1230 170 Q1200 170 1200 200 L1200 280 Q1200 310 1230 310 L1520 310 Q1550 310 1550 340 L1550 360 Q1550 370 1540 370 L1080 370 Q1050 370 1050 340 L1050 260 Q1050 230 1020 230 L900 230 Q870 230 870 200 L870 140 Q870 110 900 110 L1020 110 Q1050 110 1050 80 Z"
    fill="url(#gridPattern)"
  />

</svg>